{"title":"Alberto Del Rio WWE 2K14 Entrance 720p- By RDS31","uid":9138623,"size":25824401,"categoryP":"video","categoryS":"other","magnet":"?xt=urn:btih:8f37d73a4a358f3365768ed5561cbc6b5c44653c&amp;dn=Alberto+Del+Rio+WWE+2K14+Entrance+720p-+By+RDS31&amp;tr=udp%3A%2F%2Ftracker.openbittorrent.com%3A80&amp;tr=udp%3A%2F%2Fopen.demonii.com%3A1337&amp;tr=udp%3A%2F%2Ftracker.coppersurfer.tk%3A6969&amp;tr=udp%3A%2F%2Fexodus.desync.com%3A6969","seeders":1,"leechers":0,"uploader":"RDS31","files":1,"time":1383467557,"description":"I RECENTLY JUST BOUGHT WWE 2K14 FOR PS3...SO I JUST WANT YOU TO SEE ALBERTO DEL RIO'S WWE 2K14 ENTRANCE..SEED IT SO OTHER CAN ALSO SEE IT FAST!!\n\nVIDEO QUALITY INFO:-\nGeneral\nFormat : MPEG-4\nCodec ID : mp42\nFile size : 24.6 MiB\nDuration : 1mn 42s\nOverall bit rate mode : Variable\nOverall bit rate : 2 012 Kbps\n\nVideo\nID : 1\nFormat : AVC\nCodec ID : avc1\nCodec ID/Info : Advanced Video Coding\nDuration : 1mn 42s\nBit rate : 1 818 Kbps\nMaximum bit rate : 2 583 Kbps\nWidth : 1 280 pixels\nHeight : 720 pixels\nDisplay aspect ratio : 16:9\nFrame rate : 29.970 fps\nColor space : YUV\nChroma subsampling : 4:2:0\nBit depth : 8 bits\nScan type : Progressive\nBits/(Pixel*Frame) : 0.066\nStream size : 22.2 MiB (90%)\n\nAudio\nID : 2\nFormat : AAC\nFormat/Info : Advanced Audio Codec\nDuration : 1mn 42s\nBit rate mode : Variable\nBit rate : 192 Kbps\nMaximum bit rate : 202 Kbps\nChannel(s) : 2 channels\nChannel positions : Front: L R\nSampling rate : 44.1 KHz\nCompression mode : Lossy\nStream size : 2.35 MiB (10%)\n\nENJOY!!\n","torrent":{"xt":"urn:btih:8f37d73a4a358f3365768ed5561cbc6b5c44653c","amp;dn":"Alberto+Del+Rio+WWE+2K14+Entrance+720p-+By+RDS31","amp;tr":["udp%3A%2F%2Ftracker.openbittorrent.com%3A80","udp%3A%2F%2Fopen.demonii.com%3A1337","udp%3A%2F%2Ftracker.coppersurfer.tk%3A6969","udp%3A%2F%2Fexodus.desync.com%3A6969"],"infoHash":"8f37d73a4a358f3365768ed5561cbc6b5c44653c","infoHashBuffer":{"type":"Buffer","data":[143,55,215,58,74,53,143,51,101,118,142,213,86,28,188,107,92,68,101,60]},"announce":[],"urlList":[]}}